<?xml version="1.0" encoding="UTF-8" standalone="no"?>
<!DOCTYPE svg PUBLIC "-//W3C//DTD SVG 1.1//EN" "http://www.w3.org/Graphics/SVG/1.1/DTD/svg11.dtd">
<!-- Generated by graphviz version 2.40.1 (20161225.0304)
 -->
<!-- Title: assent Pages: 1 -->
<svg width="1008pt" height="404pt" viewBox="0.00 0.00 1007.58 404.00" xmlns="http://www.w3.org/2000/svg" xmlns:xlink="http://www.w3.org/1999/xlink">
<g id="graph0" class="graph" transform="scale(1 1) rotate(0) translate(4 400)">
<title>assent</title>
<polygon fill="#ffffff" stroke="transparent" points="-4,4 -4,-400 1003.5828,-400 1003.5828,4 -4,4"/>
<!-- node0 -->
<g id="node1" class="node">
<title>node0</title>
<polygon fill="none" stroke="#000000" points="62.4974,-154.5442 62.4974,-169.4558 44.2412,-180 18.4231,-180 .1669,-169.4558 .1669,-154.5442 18.4231,-144 44.2412,-144 62.4974,-154.5442"/>
<text text-anchor="middle" x="31.3322" y="-158.4" font-family="Times,serif" font-size="12.00" fill="#000000">assent</text>
</g>
<!-- node1 -->
<g id="node2" class="node">
<title>node1</title>
<polygon fill="none" stroke="#000000" points="180.7401,-10.5442 180.7401,-25.4558 149.4545,-36 105.2099,-36 73.9242,-25.4558 73.9242,-10.5442 105.2099,0 149.4545,0 180.7401,-10.5442"/>
<text text-anchor="middle" x="127.3322" y="-14.4" font-family="Times,serif" font-size="12.00" fill="#000000">nimble-steps</text>
</g>
<!-- node0&#45;&gt;node1 -->
<g id="edge1" class="edge">
<title>node0-&gt;node1</title>
<path fill="none" stroke="#000000" d="M27.9119,-143.9748C25.2456,-124.6874 23.942,-93.9149 37.3322,-72 47.2721,-55.7319 64.1199,-43.7415 80.5689,-35.2495"/>
<polygon fill="#000000" stroke="#000000" points="82.1315,-38.3818 89.6198,-30.8867 79.0919,-32.0761 82.1315,-38.3818"/>
</g>
<!-- node2 -->
<g id="node3" class="node">
<title>node2</title>
<polygon fill="none" stroke="#000000" points="320.0326,-82.5442 320.0326,-97.4558 271.002,-108 201.6623,-108 152.6318,-97.4558 152.6318,-82.5442 201.6623,-72 271.002,-72 320.0326,-82.5442"/>
<text text-anchor="middle" x="236.3322" y="-86.4" font-family="Times,serif" font-size="12.00" fill="#000000">nimble-steps-serialize</text>
</g>
<!-- node0&#45;&gt;node2 -->
<g id="edge3" class="edge">
<title>node0-&gt;node2</title>
<path fill="none" stroke="#000000" d="M58.9794,-152.2898C90.2784,-141.2969 142.0519,-123.1131 181.6025,-109.2221"/>
<polygon fill="#000000" stroke="#000000" points="182.8429,-112.4961 191.118,-105.8801 180.5232,-105.8917 182.8429,-112.4961"/>
</g>
<!-- node3 -->
<g id="node4" class="node">
<title>node3</title>
<polygon fill="none" stroke="#000000" points="133.882,-82.5442 133.882,-97.4558 108.3711,-108 72.2932,-108 46.7824,-97.4558 46.7824,-82.5442 72.2932,-72 108.3711,-72 133.882,-82.5442"/>
<text text-anchor="middle" x="90.3322" y="-86.4" font-family="Times,serif" font-size="12.00" fill="#000000">transmute</text>
</g>
<!-- node0&#45;&gt;node3 -->
<g id="edge4" class="edge">
<title>node0-&gt;node3</title>
<path fill="none" stroke="#000000" d="M45.6144,-144.5708C52.6308,-136.0085 61.2287,-125.5161 69.0043,-116.0272"/>
<polygon fill="#000000" stroke="#000000" points="71.9342,-117.9738 75.5653,-108.0206 66.5198,-113.537 71.9342,-117.9738"/>
</g>
<!-- node2&#45;&gt;node1 -->
<g id="edge2" class="edge">
<title>node2-&gt;node1</title>
<path fill="none" stroke="#000000" d="M208.8269,-71.8314C194.487,-62.3591 176.8114,-50.6835 161.5908,-40.6296"/>
<polygon fill="#000000" stroke="#000000" points="163.2298,-37.5176 152.9567,-34.9263 159.3716,-43.3584 163.2298,-37.5176"/>
</g>
<!-- node4 -->
<g id="node5" class="node">
<title>node4</title>
<polygon fill="none" stroke="#000000" points="806.0687,-82.5442 806.0687,-97.4558 782.7916,-108 749.8728,-108 726.5956,-97.4558 726.5956,-82.5442 749.8728,-72 782.7916,-72 806.0687,-82.5442"/>
<text text-anchor="middle" x="766.3322" y="-86.4" font-family="Times,serif" font-size="12.00" fill="#000000">bit-array</text>
</g>
<!-- node5 -->
<g id="node6" class="node">
<title>node5</title>
<polygon fill="none" stroke="#000000" points="878.2008,-154.5442 878.2008,-169.4558 848.4026,-180 806.2617,-180 776.4636,-169.4558 776.4636,-154.5442 806.2617,-144 848.4026,-144 878.2008,-154.5442"/>
<text text-anchor="middle" x="827.3322" y="-158.4" font-family="Times,serif" font-size="12.00" fill="#000000">blob-stream</text>
</g>
<!-- node5&#45;&gt;node4 -->
<g id="edge5" class="edge">
<title>node5-&gt;node4</title>
<path fill="none" stroke="#000000" d="M811.9393,-143.8314C804.8418,-135.454 796.2841,-125.3531 788.5081,-116.1749"/>
<polygon fill="#000000" stroke="#000000" points="791.0669,-113.7807 781.9323,-108.4133 785.726,-118.3056 791.0669,-113.7807"/>
</g>
<!-- node6 -->
<g id="node7" class="node">
<title>node6</title>
<polygon fill="none" stroke="#000000" points="952.4444,-82.5442 952.4444,-97.4558 914.8883,-108 861.776,-108 824.2199,-97.4558 824.2199,-82.5442 861.776,-72 914.8883,-72 952.4444,-82.5442"/>
<text text-anchor="middle" x="888.3322" y="-86.4" font-family="Times,serif" font-size="12.00" fill="#000000">monotonic-time</text>
</g>
<!-- node5&#45;&gt;node6 -->
<g id="edge6" class="edge">
<title>node5-&gt;node6</title>
<path fill="none" stroke="#000000" d="M842.725,-143.8314C849.8225,-135.454 858.3802,-125.3531 866.1562,-116.1749"/>
<polygon fill="#000000" stroke="#000000" points="868.9383,-118.3056 872.732,-108.4133 863.5974,-113.7807 868.9383,-118.3056"/>
</g>
<!-- node7 -->
<g id="node8" class="node">
<title>node7</title>
<polygon fill="none" stroke="#000000" points="414.6801,-154.5442 414.6801,-169.4558 371.1281,-180 309.5362,-180 265.9843,-169.4558 265.9843,-154.5442 309.5362,-144 371.1281,-144 414.6801,-154.5442"/>
<text text-anchor="middle" x="340.3322" y="-158.4" font-family="Times,serif" font-size="12.00" fill="#000000">datagram-transport</text>
</g>
<!-- node8 -->
<g id="node9" class="node">
<title>node8</title>
<polygon fill="none" stroke="#000000" points="984.7946,-154.5442 984.7946,-169.4558 958.7491,-180 921.9152,-180 895.8698,-169.4558 895.8698,-154.5442 921.9152,-144 958.7491,-144 984.7946,-154.5442"/>
<text text-anchor="middle" x="940.3322" y="-158.4" font-family="Times,serif" font-size="12.00" fill="#000000">lagometer</text>
</g>
<!-- node9 -->
<g id="node10" class="node">
<title>node9</title>
<polygon fill="none" stroke="#000000" points="612.5401,-370.5442 612.5401,-385.4558 592.5016,-396 564.1628,-396 544.1242,-385.4558 544.1242,-370.5442 564.1628,-360 592.5016,-360 612.5401,-370.5442"/>
<text text-anchor="middle" x="578.3322" y="-374.4" font-family="Times,serif" font-size="12.00" fill="#000000">nimble</text>
</g>
<!-- node10 -->
<g id="node11" class="node">
<title>node10</title>
<polygon fill="none" stroke="#000000" points="723.6742,-298.5442 723.6742,-313.4558 676.6109,-324 610.0534,-324 562.9901,-313.4558 562.9901,-298.5442 610.0534,-288 676.6109,-288 723.6742,-298.5442"/>
<text text-anchor="middle" x="643.3322" y="-302.4" font-family="Times,serif" font-size="12.00" fill="#000000">nimble-engine-client</text>
</g>
<!-- node9&#45;&gt;node10 -->
<g id="edge24" class="edge">
<title>node9-&gt;node10</title>
<path fill="none" stroke="#000000" d="M594.0668,-360.5708C601.9529,-351.8355 611.6525,-341.0914 620.3534,-331.4534"/>
<polygon fill="#000000" stroke="#000000" points="622.9605,-333.7887 627.0636,-324.0206 617.7646,-329.0979 622.9605,-333.7887"/>
</g>
<!-- node17 -->
<g id="node18" class="node">
<title>node17</title>
<polygon fill="none" stroke="#000000" points="571.1299,-226.5442 571.1299,-241.4558 530.8291,-252 473.8352,-252 433.5345,-241.4558 433.5345,-226.5442 473.8352,-216 530.8291,-216 571.1299,-226.5442"/>
<text text-anchor="middle" x="502.3322" y="-230.4" font-family="Times,serif" font-size="12.00" fill="#000000">nimble-server-lib</text>
</g>
<!-- node9&#45;&gt;node17 -->
<g id="edge30" class="edge">
<title>node9-&gt;node17</title>
<path fill="none" stroke="#000000" d="M568.7067,-359.7623C555.5725,-334.8764 531.9311,-290.0822 516.6964,-261.2165"/>
<polygon fill="#000000" stroke="#000000" points="519.6424,-259.2998 511.8795,-252.0896 513.4517,-262.5671 519.6424,-259.2998"/>
</g>
<!-- node11 -->
<g id="node12" class="node">
<title>node11</title>
<polygon fill="none" stroke="#000000" points="705.4225,-226.5442 705.4225,-241.4558 673.1513,-252 627.513,-252 595.2418,-241.4558 595.2418,-226.5442 627.513,-216 673.1513,-216 705.4225,-226.5442"/>
<text text-anchor="middle" x="650.3322" y="-230.4" font-family="Times,serif" font-size="12.00" fill="#000000">nimble-client</text>
</g>
<!-- node10&#45;&gt;node11 -->
<g id="edge13" class="edge">
<title>node10-&gt;node11</title>
<path fill="none" stroke="#000000" d="M645.0986,-287.8314C645.8472,-280.131 646.7374,-270.9743 647.5694,-262.4166"/>
<polygon fill="#000000" stroke="#000000" points="651.0578,-262.7051 648.542,-252.4133 644.0907,-262.0276 651.0578,-262.7051"/>
</g>
<!-- node14 -->
<g id="node15" class="node">
<title>node14</title>
<polygon fill="none" stroke="#000000" points="161.2504,-226.5442 161.2504,-241.4558 141.9673,-252 114.697,-252 95.4139,-241.4558 95.4139,-226.5442 114.697,-216 141.9673,-216 161.2504,-226.5442"/>
<text text-anchor="middle" x="128.3322" y="-230.4" font-family="Times,serif" font-size="12.00" fill="#000000">rectify</text>
</g>
<!-- node10&#45;&gt;node14 -->
<g id="edge21" class="edge">
<title>node10-&gt;node14</title>
<path fill="none" stroke="#000000" d="M573.341,-296.2148C465.0093,-281.0694 259.9702,-252.4038 171.1465,-239.9857"/>
<polygon fill="#000000" stroke="#000000" points="171.5439,-236.5073 161.1556,-238.5889 170.5747,-243.4399 171.5439,-236.5073"/>
</g>
<!-- node16 -->
<g id="node17" class="node">
<title>node16</title>
<polygon fill="none" stroke="#000000" points="929.3541,-226.5442 929.3541,-241.4558 905.324,-252 871.3403,-252 847.3102,-241.4558 847.3102,-226.5442 871.3403,-216 905.324,-216 929.3541,-226.5442"/>
<text text-anchor="middle" x="888.3322" y="-230.4" font-family="Times,serif" font-size="12.00" fill="#000000">time-tick</text>
</g>
<!-- node10&#45;&gt;node16 -->
<g id="edge23" class="edge">
<title>node10-&gt;node16</title>
<path fill="none" stroke="#000000" d="M692.6169,-291.5163C736.7298,-278.5525 800.8504,-259.7089 843.5351,-247.1648"/>
<polygon fill="#000000" stroke="#000000" points="844.759,-250.4533 853.3664,-244.2756 842.7853,-243.7373 844.759,-250.4533"/>
</g>
<!-- node11&#45;&gt;node2 -->
<g id="edge11" class="edge">
<title>node11-&gt;node2</title>
<path fill="none" stroke="#000000" d="M685.2417,-219.6192C701.7878,-210.8142 719.9498,-197.7781 729.3322,-180 736.8,-165.8497 740.0122,-155.9137 729.3322,-144 703.2506,-114.9056 466.288,-99.9211 330.6148,-93.6647"/>
<polygon fill="#000000" stroke="#000000" points="330.3712,-90.1501 320.2229,-93.1934 330.054,-97.1429 330.3712,-90.1501"/>
</g>
<!-- node11&#45;&gt;node5 -->
<g id="edge7" class="edge">
<title>node11-&gt;node5</title>
<path fill="none" stroke="#000000" d="M685.3017,-219.7751C713.6655,-208.2373 753.78,-191.9195 784.1467,-179.567"/>
<polygon fill="#000000" stroke="#000000" points="785.6921,-182.7169 793.6362,-175.7068 783.0545,-176.2328 785.6921,-182.7169"/>
</g>
<!-- node11&#45;&gt;node7 -->
<g id="edge8" class="edge">
<title>node11-&gt;node7</title>
<path fill="none" stroke="#000000" d="M607.0681,-222.6561C598.2346,-220.4016 588.9933,-218.0875 580.3322,-216 521.6072,-201.8466 454.5122,-186.8489 406.2219,-176.2603"/>
<polygon fill="#000000" stroke="#000000" points="406.7296,-172.7886 396.2125,-174.0696 405.233,-179.6268 406.7296,-172.7886"/>
</g>
<!-- node11&#45;&gt;node8 -->
<g id="edge9" class="edge">
<title>node11-&gt;node8</title>
<path fill="none" stroke="#000000" d="M699.2717,-224.3916C747.4565,-214.5702 822.9708,-198.2089 887.3322,-180 890.5113,-179.1006 893.7809,-178.1225 897.0608,-177.1026"/>
<polygon fill="#000000" stroke="#000000" points="898.4031,-180.3476 906.8514,-173.9542 896.26,-173.6837 898.4031,-180.3476"/>
</g>
<!-- node12 -->
<g id="node13" class="node">
<title>node12</title>
<polygon fill="none" stroke="#000000" points="561.832,-154.5442 561.832,-169.4558 524.0489,-180 470.6154,-180 432.8323,-169.4558 432.8323,-154.5442 470.6154,-144 524.0489,-144 561.832,-154.5442"/>
<text text-anchor="middle" x="497.3322" y="-158.4" font-family="Times,serif" font-size="12.00" fill="#000000">nimble-serialize</text>
</g>
<!-- node11&#45;&gt;node12 -->
<g id="edge10" class="edge">
<title>node11-&gt;node12</title>
<path fill="none" stroke="#000000" d="M618.2583,-218.9064C595.7255,-208.3027 565.3231,-193.9958 540.64,-182.3802"/>
<polygon fill="#000000" stroke="#000000" points="542.0268,-179.1646 531.4883,-178.0735 539.0462,-185.4984 542.0268,-179.1646"/>
</g>
<!-- node13 -->
<g id="node14" class="node">
<title>node13</title>
<polygon fill="none" stroke="#000000" points="720.3705,-154.5442 720.3705,-169.4558 679.343,-180 621.3213,-180 580.2938,-169.4558 580.2938,-154.5442 621.3213,-144 679.343,-144 720.3705,-154.5442"/>
<text text-anchor="middle" x="650.3322" y="-158.4" font-family="Times,serif" font-size="12.00" fill="#000000">ordered-datagram</text>
</g>
<!-- node11&#45;&gt;node13 -->
<g id="edge12" class="edge">
<title>node11-&gt;node13</title>
<path fill="none" stroke="#000000" d="M650.3322,-215.8314C650.3322,-208.131 650.3322,-198.9743 650.3322,-190.4166"/>
<polygon fill="#000000" stroke="#000000" points="653.8323,-190.4132 650.3322,-180.4133 646.8323,-190.4133 653.8323,-190.4132"/>
</g>
<!-- node14&#45;&gt;node0 -->
<g id="edge14" class="edge">
<title>node14-&gt;node0</title>
<path fill="none" stroke="#000000" d="M108.2337,-219.0816C94,-208.5163 74.7272,-194.2108 59.0367,-182.5642"/>
<polygon fill="#000000" stroke="#000000" points="60.8588,-179.5579 50.743,-176.408 56.6866,-185.1787 60.8588,-179.5579"/>
</g>
<!-- node14&#45;&gt;node2 -->
<g id="edge15" class="edge">
<title>node14-&gt;node2</title>
<path fill="none" stroke="#000000" d="M128.061,-215.7616C128.6471,-196.2919 132.1844,-165.3647 147.3322,-144 156.9409,-130.4476 171.1241,-119.6654 185.3578,-111.4114"/>
<polygon fill="#000000" stroke="#000000" points="187.0828,-114.4574 194.1863,-106.5967 183.7313,-108.3118 187.0828,-114.4574"/>
</g>
<!-- node14&#45;&gt;node3 -->
<g id="edge20" class="edge">
<title>node14-&gt;node3</title>
<path fill="none" stroke="#000000" d="M123.5194,-215.7623C117.0094,-191.0928 105.3368,-146.8598 97.7139,-117.9731"/>
<polygon fill="#000000" stroke="#000000" points="101.0416,-116.8656 95.1058,-108.0896 94.2733,-118.6517 101.0416,-116.8656"/>
</g>
<!-- node15 -->
<g id="node16" class="node">
<title>node15</title>
<polygon fill="none" stroke="#000000" points="210.3322,-154.5442 210.3322,-169.4558 194.5159,-180 172.1484,-180 156.3322,-169.4558 156.3322,-154.5442 172.1484,-144 194.5159,-144 210.3322,-154.5442"/>
<text text-anchor="middle" x="183.3322" y="-158.4" font-family="Times,serif" font-size="12.00" fill="#000000">seer</text>
</g>
<!-- node14&#45;&gt;node15 -->
<g id="edge19" class="edge">
<title>node14-&gt;node15</title>
<path fill="none" stroke="#000000" d="M142.211,-215.8314C148.9057,-207.0673 157.0413,-196.4171 164.3035,-186.9103"/>
<polygon fill="#000000" stroke="#000000" points="167.1133,-188.9977 170.4024,-178.9263 161.5506,-184.7484 167.1133,-188.9977"/>
</g>
<!-- node15&#45;&gt;node2 -->
<g id="edge17" class="edge">
<title>node15-&gt;node2</title>
<path fill="none" stroke="#000000" d="M196.162,-144.5708C202.4011,-136.095 210.0325,-125.7279 216.9613,-116.3151"/>
<polygon fill="#000000" stroke="#000000" points="219.9575,-118.1489 223.067,-108.0206 214.3201,-113.9991 219.9575,-118.1489"/>
</g>
<!-- node15&#45;&gt;node3 -->
<g id="edge18" class="edge">
<title>node15-&gt;node3</title>
<path fill="none" stroke="#000000" d="M165.4008,-148.1177C152.4856,-138.1188 134.7697,-124.4032 119.7914,-112.8071"/>
<polygon fill="#000000" stroke="#000000" points="121.8495,-109.9742 111.7996,-106.62 117.5643,-115.5093 121.8495,-109.9742"/>
</g>
<!-- node15&#45;&gt;node6 -->
<g id="edge16" class="edge">
<title>node15-&gt;node6</title>
<path fill="none" stroke="#000000" d="M210.1701,-154.277C224.1203,-150.5681 241.517,-146.4148 257.3322,-144 503.0005,-106.4893 569.7231,-145.8968 815.3322,-108 820.8149,-107.154 826.4891,-106.0928 832.1402,-104.9112"/>
<polygon fill="#000000" stroke="#000000" points="833.234,-108.2539 842.2408,-102.6747 831.7206,-101.4194 833.234,-108.2539"/>
</g>
<!-- node16&#45;&gt;node6 -->
<g id="edge22" class="edge">
<title>node16-&gt;node6</title>
<path fill="none" stroke="#000000" d="M926.3445,-225.2147C950.0845,-217.5503 978.8107,-203.7974 993.3322,-180 1001.6664,-166.342 1001.6664,-157.658 993.3322,-144 982.5537,-126.3365 963.9495,-114.2068 945.367,-105.9931"/>
<polygon fill="#000000" stroke="#000000" points="946.569,-102.7034 935.9882,-102.1576 943.9193,-109.1825 946.569,-102.7034"/>
</g>
<!-- node17&#45;&gt;node2 -->
<g id="edge28" class="edge">
<title>node17-&gt;node2</title>
<path fill="none" stroke="#000000" d="M433.4741,-227.0236C369.9551,-219.1774 281.8895,-204.2573 257.3322,-180 241.1735,-164.0387 236.464,-138.2103 235.4825,-118.3075"/>
<polygon fill="#000000" stroke="#000000" points="238.9804,-118.1662 235.2698,-108.2424 231.982,-118.3142 238.9804,-118.1662"/>
</g>
<!-- node17&#45;&gt;node5 -->
<g id="edge25" class="edge">
<title>node17-&gt;node5</title>
<path fill="none" stroke="#000000" d="M555.2724,-222.2717C615.2086,-208.9935 712.3662,-187.4694 772.9085,-174.0569"/>
<polygon fill="#000000" stroke="#000000" points="774.0277,-177.3939 783.0339,-171.8138 772.5136,-170.5596 774.0277,-177.3939"/>
</g>
<!-- node17&#45;&gt;node7 -->
<g id="edge26" class="edge">
<title>node17-&gt;node7</title>
<path fill="none" stroke="#000000" d="M465.9762,-217.8418C442.6493,-207.4743 412.1386,-193.914 387.025,-182.7524"/>
<polygon fill="#000000" stroke="#000000" points="388.2501,-179.4668 377.6905,-178.6037 385.4071,-185.8635 388.2501,-179.4668"/>
</g>
<!-- node17&#45;&gt;node12 -->
<g id="edge27" class="edge">
<title>node17-&gt;node12</title>
<path fill="none" stroke="#000000" d="M501.0704,-215.8314C500.5357,-208.131 499.8998,-198.9743 499.3055,-190.4166"/>
<polygon fill="#000000" stroke="#000000" points="502.7953,-190.1467 498.6109,-180.4133 495.8121,-190.6317 502.7953,-190.1467"/>
</g>
<!-- node17&#45;&gt;node13 -->
<g id="edge29" class="edge">
<title>node17-&gt;node13</title>
<path fill="none" stroke="#000000" d="M536.6583,-217.3008C557.5047,-207.1593 584.3148,-194.1166 606.6622,-183.2448"/>
<polygon fill="#000000" stroke="#000000" points="608.4749,-186.2553 615.9361,-178.7332 605.4126,-179.9606 608.4749,-186.2553"/>
</g>
</g>
</svg>