<?xml version="1.0" encoding="UTF-8" standalone="no"?>
<!DOCTYPE svg PUBLIC "-//W3C//DTD SVG 1.1//EN" "http://www.w3.org/Graphics/SVG/1.1/DTD/svg11.dtd">
<!-- Generated by graphviz version 2.40.1 (20161225.0304)
 -->
<!-- Title: assent Pages: 1 -->
<svg width="1209pt" height="692pt" viewBox="0.00 0.00 1208.93 692.00" xmlns="http://www.w3.org/2000/svg" xmlns:xlink="http://www.w3.org/1999/xlink">
<g id="graph0" class="graph" transform="scale(1 1) rotate(0) translate(4 688)">
<title>assent</title>
<polygon fill="#ffffff" stroke="transparent" points="-4,4 -4,-688 1204.9253,-688 1204.9253,4 -4,4"/>
<!-- node0 -->
<g id="node1" class="node">
<title>node0</title>
<polygon fill="none" stroke="#000000" points="1101.8449,-442.5442 1101.8449,-457.4558 1086.0287,-468 1063.6612,-468 1047.8449,-457.4558 1047.8449,-442.5442 1063.6612,-432 1086.0287,-432 1101.8449,-442.5442"/>
<text text-anchor="middle" x="1074.8449" y="-447" font-family="Times,serif" font-size="10.00" fill="#000000">assent</text>
</g>
<!-- node1 -->
<g id="node2" class="node">
<title>node1</title>
<polygon fill="none" stroke="#000000" points="824.5039,-154.5442 824.5039,-169.4558 807.1301,-180 782.5598,-180 765.1859,-169.4558 765.1859,-154.5442 782.5598,-144 807.1301,-144 824.5039,-154.5442"/>
<text text-anchor="middle" x="794.8449" y="-159" font-family="Times,serif" font-size="10.00" fill="#000000">imprint</text>
</g>
<!-- node0&#45;&gt;node1 -->
<g id="edge3" class="edge">
<title>node0-&gt;node1</title>
<path fill="none" stroke="#000000" d="M1076.6709,-431.7674C1077.7118,-412.5816 1076.7927,-382.1518 1063.8449,-360 1008.6835,-265.6271 888.9032,-202.8792 829.5776,-176.3523"/>
<polygon fill="#000000" stroke="#000000" points="830.8167,-173.074 820.2532,-172.2596 828.0033,-179.4837 830.8167,-173.074"/>
</g>
<!-- node4 -->
<g id="node5" class="node">
<title>node4</title>
<polygon fill="none" stroke="#000000" points="948.6955,-298.5442 948.6955,-313.4558 923.0084,-324 886.6814,-324 860.9944,-313.4558 860.9944,-298.5442 886.6814,-288 923.0084,-288 948.6955,-298.5442"/>
<text text-anchor="middle" x="904.8449" y="-303" font-family="Times,serif" font-size="10.00" fill="#000000">nimble-steps</text>
</g>
<!-- node0&#45;&gt;node4 -->
<g id="edge9" class="edge">
<title>node0-&gt;node4</title>
<path fill="none" stroke="#000000" d="M1071.94,-431.7841C1067.8531,-411.7494 1058.5729,-379.7788 1038.8449,-360 1016.8382,-337.9367 984.6303,-324.57 957.3062,-316.6553"/>
<polygon fill="#000000" stroke="#000000" points="958.0568,-313.2323 947.4884,-313.98 956.2164,-319.986 958.0568,-313.2323"/>
</g>
<!-- node7 -->
<g id="node8" class="node">
<title>node7</title>
<polygon fill="none" stroke="#000000" points="996.3915,-370.5442 996.3915,-385.4558 956.8236,-396 900.8662,-396 861.2983,-385.4558 861.2983,-370.5442 900.8662,-360 956.8236,-360 996.3915,-370.5442"/>
<text text-anchor="middle" x="928.8449" y="-375" font-family="Times,serif" font-size="10.00" fill="#000000">nimble-steps-serialize</text>
</g>
<!-- node0&#45;&gt;node7 -->
<g id="edge11" class="edge">
<title>node0-&gt;node7</title>
<path fill="none" stroke="#000000" d="M1052.7729,-438.9322C1048.1731,-436.6346 1043.3531,-434.2336 1038.8449,-432 1016.6933,-421.025 991.9871,-408.8873 971.6096,-398.9037"/>
<polygon fill="#000000" stroke="#000000" points="973.0967,-395.7348 962.5764,-394.4801 970.018,-402.0215 973.0967,-395.7348"/>
</g>
<!-- node8 -->
<g id="node9" class="node">
<title>node8</title>
<polygon fill="none" stroke="#000000" points="1201.0059,-370.5442 1201.0059,-385.4558 1179.8233,-396 1149.8665,-396 1128.6839,-385.4558 1128.6839,-370.5442 1149.8665,-360 1179.8233,-360 1201.0059,-370.5442"/>
<text text-anchor="middle" x="1164.8449" y="-375" font-family="Times,serif" font-size="10.00" fill="#000000">transmute</text>
</g>
<!-- node0&#45;&gt;node8 -->
<g id="edge13" class="edge">
<title>node0-&gt;node8</title>
<path fill="none" stroke="#000000" d="M1092.626,-435.7751C1105.3018,-425.6345 1122.5929,-411.8016 1137.0779,-400.2136"/>
<polygon fill="#000000" stroke="#000000" points="1139.6038,-402.6751 1145.2261,-393.6951 1135.2309,-397.209 1139.6038,-402.6751"/>
</g>
<!-- node2 -->
<g id="node3" class="node">
<title>node2</title>
<polygon fill="none" stroke="#000000" points="349.8449,-82.5442 349.8449,-97.4558 334.0287,-108 311.6612,-108 295.8449,-97.4558 295.8449,-82.5442 311.6612,-72 334.0287,-72 349.8449,-82.5442"/>
<text text-anchor="middle" x="322.8449" y="-87" font-family="Times,serif" font-size="10.00" fill="#000000">clog</text>
</g>
<!-- node1&#45;&gt;node2 -->
<g id="edge2" class="edge">
<title>node1-&gt;node2</title>
<path fill="none" stroke="#000000" d="M764.9611,-157.4415C682.3113,-144.8338 450.7928,-109.5175 360.0241,-95.6714"/>
<polygon fill="#000000" stroke="#000000" points="360.3358,-92.1785 349.9224,-94.1305 359.2802,-99.0985 360.3358,-92.1785"/>
</g>
<!-- node3 -->
<g id="node4" class="node">
<title>node3</title>
<polygon fill="none" stroke="#000000" points="355.2823,-10.5442 355.2823,-25.4558 336.2809,-36 309.4089,-36 290.4076,-25.4558 290.4076,-10.5442 309.4089,0 336.2809,0 355.2823,-10.5442"/>
<text text-anchor="middle" x="322.8449" y="-15" font-family="Times,serif" font-size="10.00" fill="#000000">tiny-libc</text>
</g>
<!-- node2&#45;&gt;node3 -->
<g id="edge1" class="edge">
<title>node2-&gt;node3</title>
<path fill="none" stroke="#000000" d="M322.8449,-71.8314C322.8449,-64.131 322.8449,-54.9743 322.8449,-46.4166"/>
<polygon fill="#000000" stroke="#000000" points="326.345,-46.4132 322.8449,-36.4133 319.345,-46.4133 326.345,-46.4132"/>
</g>
<!-- node4&#45;&gt;node1 -->
<g id="edge8" class="edge">
<title>node4-&gt;node1</title>
<path fill="none" stroke="#000000" d="M890.9134,-287.7623C871.5501,-262.4141 836.4088,-216.4109 814.419,-187.6243"/>
<polygon fill="#000000" stroke="#000000" points="817.1711,-185.4613 808.3193,-179.6392 811.6084,-189.7106 817.1711,-185.4613"/>
</g>
<!-- node5 -->
<g id="node6" class="node">
<title>node5</title>
<polygon fill="none" stroke="#000000" points="824.2776,-226.5442 824.2776,-241.4558 807.0364,-252 782.6535,-252 765.4122,-241.4558 765.4122,-226.5442 782.6535,-216 807.0364,-216 824.2776,-226.5442"/>
<text text-anchor="middle" x="794.8449" y="-231" font-family="Times,serif" font-size="10.00" fill="#000000">discoid</text>
</g>
<!-- node4&#45;&gt;node5 -->
<g id="edge5" class="edge">
<title>node4-&gt;node5</title>
<path fill="none" stroke="#000000" d="M880.705,-290.1993C864.0099,-279.2716 841.7057,-264.6725 824.0147,-253.093"/>
<polygon fill="#000000" stroke="#000000" points="825.522,-249.8964 815.2381,-247.3483 821.6883,-255.7534 825.522,-249.8964"/>
</g>
<!-- node6 -->
<g id="node7" class="node">
<title>node6</title>
<polygon fill="none" stroke="#000000" points="395.8449,-226.5442 395.8449,-241.4558 380.0287,-252 357.6612,-252 341.8449,-241.4558 341.8449,-226.5442 357.6612,-216 380.0287,-216 395.8449,-226.5442"/>
<text text-anchor="middle" x="368.8449" y="-231" font-family="Times,serif" font-size="10.00" fill="#000000">flood</text>
</g>
<!-- node4&#45;&gt;node6 -->
<g id="edge7" class="edge">
<title>node4-&gt;node6</title>
<path fill="none" stroke="#000000" d="M860.9818,-300.1079C757.9585,-286.269 502.0079,-251.8876 406.0063,-238.9918"/>
<polygon fill="#000000" stroke="#000000" points="406.2776,-235.4969 395.9006,-237.6343 405.3456,-242.4346 406.2776,-235.4969"/>
</g>
<!-- node5&#45;&gt;node1 -->
<g id="edge4" class="edge">
<title>node5-&gt;node1</title>
<path fill="none" stroke="#000000" d="M794.8449,-215.8314C794.8449,-208.131 794.8449,-198.9743 794.8449,-190.4166"/>
<polygon fill="#000000" stroke="#000000" points="798.345,-190.4132 794.8449,-180.4133 791.345,-190.4133 798.345,-190.4132"/>
</g>
<!-- node6&#45;&gt;node2 -->
<g id="edge6" class="edge">
<title>node6-&gt;node2</title>
<path fill="none" stroke="#000000" d="M363.019,-215.7623C355.1385,-191.0928 341.0085,-146.8598 331.7808,-117.9731"/>
<polygon fill="#000000" stroke="#000000" points="335.0006,-116.5503 328.6236,-108.0896 328.3326,-118.6805 335.0006,-116.5503"/>
</g>
<!-- node7&#45;&gt;node4 -->
<g id="edge10" class="edge">
<title>node7-&gt;node4</title>
<path fill="none" stroke="#000000" d="M922.7887,-359.8314C920.1937,-352.0463 917.1026,-342.7729 914.2232,-334.1347"/>
<polygon fill="#000000" stroke="#000000" points="917.4654,-332.7933 910.9827,-324.4133 910.8246,-335.0069 917.4654,-332.7933"/>
</g>
<!-- node8&#45;&gt;node2 -->
<g id="edge12" class="edge">
<title>node8-&gt;node2</title>
<path fill="none" stroke="#000000" d="M1148.2423,-360.7867C1102.976,-315.1886 971.5505,-191.5267 833.8449,-144 745.9853,-113.6767 462.5958,-96.9404 360.1972,-91.7629"/>
<polygon fill="#000000" stroke="#000000" points="360.1841,-88.258 350.0225,-91.2565 359.8361,-95.2493 360.1841,-88.258"/>
</g>
<!-- node9 -->
<g id="node10" class="node">
<title>node9</title>
<polygon fill="none" stroke="#000000" points="323.4849,-226.5442 323.4849,-241.4558 304.3648,-252 277.325,-252 258.205,-241.4558 258.205,-226.5442 277.325,-216 304.3648,-216 323.4849,-226.5442"/>
<text text-anchor="middle" x="290.8449" y="-231" font-family="Times,serif" font-size="10.00" fill="#000000">bit-array</text>
</g>
<!-- node9&#45;&gt;node1 -->
<g id="edge14" class="edge">
<title>node9-&gt;node1</title>
<path fill="none" stroke="#000000" d="M315.7448,-221.9363C321.2703,-219.6549 327.1727,-217.5127 332.8449,-216 485.1809,-175.3736 673.8679,-165.3064 754.8606,-162.8161"/>
<polygon fill="#000000" stroke="#000000" points="755.2092,-166.3077 765.1055,-162.5245 755.0099,-159.3106 755.2092,-166.3077"/>
</g>
<!-- node10 -->
<g id="node11" class="node">
<title>node10</title>
<polygon fill="none" stroke="#000000" points="324.3482,-298.5442 324.3482,-313.4558 300.0361,-324 265.6537,-324 241.3417,-313.4558 241.3417,-298.5442 265.6537,-288 300.0361,-288 324.3482,-298.5442"/>
<text text-anchor="middle" x="282.8449" y="-303" font-family="Times,serif" font-size="10.00" fill="#000000">blob-stream</text>
</g>
<!-- node10&#45;&gt;node6 -->
<g id="edge16" class="edge">
<title>node10-&gt;node6</title>
<path fill="none" stroke="#000000" d="M303.2257,-288.937C315.3679,-278.7715 330.8738,-265.7897 343.7637,-254.9983"/>
<polygon fill="#000000" stroke="#000000" points="346.3739,-257.3777 351.7947,-248.2746 341.8803,-252.0104 346.3739,-257.3777"/>
</g>
<!-- node10&#45;&gt;node9 -->
<g id="edge15" class="edge">
<title>node10-&gt;node9</title>
<path fill="none" stroke="#000000" d="M284.8637,-287.8314C285.7193,-280.131 286.7367,-270.9743 287.6875,-262.4166"/>
<polygon fill="#000000" stroke="#000000" points="291.1732,-262.7386 288.799,-252.4133 284.216,-261.9656 291.1732,-262.7386"/>
</g>
<!-- node11 -->
<g id="node12" class="node">
<title>node11</title>
<polygon fill="none" stroke="#000000" points="239.8314,-226.5442 239.8314,-241.4558 209.3784,-252 166.3114,-252 135.8585,-241.4558 135.8585,-226.5442 166.3114,-216 209.3784,-216 239.8314,-226.5442"/>
<text text-anchor="middle" x="187.8449" y="-231" font-family="Times,serif" font-size="10.00" fill="#000000">monotonic-time</text>
</g>
<!-- node10&#45;&gt;node11 -->
<g id="edge18" class="edge">
<title>node10-&gt;node11</title>
<path fill="none" stroke="#000000" d="M261.288,-289.6621C248.8662,-280.2477 233.0299,-268.2454 219.2452,-257.7981"/>
<polygon fill="#000000" stroke="#000000" points="221.0601,-254.782 210.9763,-251.5312 216.832,-260.3608 221.0601,-254.782"/>
</g>
<!-- node11&#45;&gt;node2 -->
<g id="edge17" class="edge">
<title>node11-&gt;node2</title>
<path fill="none" stroke="#000000" d="M204.9428,-215.7623C229.3275,-189.7519 274.1013,-141.9932 300.9036,-113.4041"/>
<polygon fill="#000000" stroke="#000000" points="303.6687,-115.5721 307.9547,-105.8829 298.5619,-110.7845 303.6687,-115.5721"/>
</g>
<!-- node12 -->
<g id="node13" class="node">
<title>node12</title>
<polygon fill="none" stroke="#000000" points="436.7078,-370.5442 436.7078,-385.4558 401.6409,-396 352.0489,-396 316.9821,-385.4558 316.9821,-370.5442 352.0489,-360 401.6409,-360 436.7078,-370.5442"/>
<text text-anchor="middle" x="376.8449" y="-375" font-family="Times,serif" font-size="10.00" fill="#000000">datagram-transport</text>
</g>
<!-- node13 -->
<g id="node14" class="node">
<title>node13</title>
<polygon fill="none" stroke="#000000" points="545.8432,-442.5442 545.8432,-457.4558 501.9103,-468 439.7796,-468 395.8466,-457.4558 395.8466,-442.5442 439.7796,-432 501.9103,-432 545.8432,-442.5442"/>
<text text-anchor="middle" x="470.8449" y="-447" font-family="Times,serif" font-size="10.00" fill="#000000">datagram-transport-local</text>
</g>
<!-- node13&#45;&gt;node5 -->
<g id="edge20" class="edge">
<title>node13-&gt;node5</title>
<path fill="none" stroke="#000000" d="M532.1037,-439.1834C608.4848,-425.4664 730.0513,-402.7808 737.8449,-396 777.2545,-361.7121 789.4192,-298.4769 793.1723,-261.9775"/>
<polygon fill="#000000" stroke="#000000" points="796.6597,-262.2737 794.0559,-252.0038 789.687,-261.6559 796.6597,-262.2737"/>
</g>
<!-- node13&#45;&gt;node12 -->
<g id="edge19" class="edge">
<title>node13-&gt;node12</title>
<path fill="none" stroke="#000000" d="M447.1248,-431.8314C435.4356,-422.8779 421.1761,-411.9558 408.564,-402.2955"/>
<polygon fill="#000000" stroke="#000000" points="410.6246,-399.4651 400.5575,-396.1628 406.368,-405.0222 410.6246,-399.4651"/>
</g>
<!-- node14 -->
<g id="node15" class="node">
<title>node14</title>
<polygon fill="none" stroke="#000000" points="73.8449,-442.5442 73.8449,-457.4558 58.0287,-468 35.6612,-468 19.8449,-457.4558 19.8449,-442.5442 35.6612,-432 58.0287,-432 73.8449,-442.5442"/>
<text text-anchor="middle" x="46.8449" y="-447" font-family="Times,serif" font-size="10.00" fill="#000000">hazy</text>
</g>
<!-- node14&#45;&gt;node2 -->
<g id="edge21" class="edge">
<title>node14-&gt;node2</title>
<path fill="none" stroke="#000000" d="M38.7861,-431.7668C27.6316,-404.8248 8.8449,-352.5405 8.8449,-306 8.8449,-306 8.8449,-306 8.8449,-234 8.8449,-173.6216 203.0948,-119.1394 286.0277,-98.6302"/>
<polygon fill="#000000" stroke="#000000" points="286.9175,-102.0158 295.8017,-96.2432 285.2568,-95.2156 286.9175,-102.0158"/>
</g>
<!-- node14&#45;&gt;node5 -->
<g id="edge23" class="edge">
<title>node14-&gt;node5</title>
<path fill="none" stroke="#000000" d="M69.8637,-439.65C133.7753,-411.3016 319.3467,-331.6166 480.8449,-288 577.8192,-261.8097 695.2168,-245.6037 755.2657,-238.3959"/>
<polygon fill="#000000" stroke="#000000" points="755.9241,-241.8425 765.445,-237.1946 755.1037,-234.8908 755.9241,-241.8425"/>
</g>
<!-- node14&#45;&gt;node11 -->
<g id="edge24" class="edge">
<title>node14-&gt;node11</title>
<path fill="none" stroke="#000000" d="M47.0044,-431.6864C47.9734,-412.4331 51.8492,-381.9474 65.8449,-360 80.1829,-337.5159 94.5726,-342.4306 113.8449,-324 134.3829,-304.3591 154.6645,-279.1716 168.7862,-260.44"/>
<polygon fill="#000000" stroke="#000000" points="171.6583,-262.4431 174.8199,-252.3309 166.0424,-258.2644 171.6583,-262.4431"/>
</g>
<!-- node14&#45;&gt;node12 -->
<g id="edge22" class="edge">
<title>node14-&gt;node12</title>
<path fill="none" stroke="#000000" d="M73.8502,-444.1079C126.8502,-432.5443 245.588,-406.6379 317.6824,-390.9082"/>
<polygon fill="#000000" stroke="#000000" points="318.5099,-394.3101 327.5339,-388.7588 317.0177,-387.471 318.5099,-394.3101"/>
</g>
<!-- node15 -->
<g id="node16" class="node">
<title>node15</title>
<polygon fill="none" stroke="#000000" points="147.2218,-370.5442 147.2218,-385.4558 125.9127,-396 95.7771,-396 74.468,-385.4558 74.468,-370.5442 95.7771,-360 125.9127,-360 147.2218,-370.5442"/>
<text text-anchor="middle" x="110.8449" y="-375" font-family="Times,serif" font-size="10.00" fill="#000000">lagometer</text>
</g>
<!-- node16 -->
<g id="node17" class="node">
<title>node16</title>
<polygon fill="none" stroke="#000000" points="214.8449,-298.5442 214.8449,-313.4558 199.0287,-324 176.6612,-324 160.8449,-313.4558 160.8449,-298.5442 176.6612,-288 199.0287,-288 214.8449,-298.5442"/>
<text text-anchor="middle" x="187.8449" y="-303" font-family="Times,serif" font-size="10.00" fill="#000000">stats</text>
</g>
<!-- node15&#45;&gt;node16 -->
<g id="edge26" class="edge">
<title>node15-&gt;node16</title>
<path fill="none" stroke="#000000" d="M128.7038,-361.3008C139.3163,-351.3774 152.8995,-338.6762 164.3715,-327.9492"/>
<polygon fill="#000000" stroke="#000000" points="167.0001,-330.2831 171.9138,-320.8966 162.2191,-325.1701 167.0001,-330.2831"/>
</g>
<!-- node16&#45;&gt;node11 -->
<g id="edge25" class="edge">
<title>node16-&gt;node11</title>
<path fill="none" stroke="#000000" d="M187.8449,-287.8314C187.8449,-280.131 187.8449,-270.9743 187.8449,-262.4166"/>
<polygon fill="#000000" stroke="#000000" points="191.345,-262.4132 187.8449,-252.4133 184.345,-262.4133 191.345,-262.4132"/>
</g>
<!-- node17 -->
<g id="node18" class="node">
<title>node17</title>
<polygon fill="none" stroke="#000000" points="447.3311,-658.5442 447.3311,-673.4558 430.6443,-684 407.0456,-684 390.3588,-673.4558 390.3588,-658.5442 407.0456,-648 430.6443,-648 447.3311,-658.5442"/>
<text text-anchor="middle" x="418.8449" y="-663" font-family="Times,serif" font-size="10.00" fill="#000000">nimble</text>
</g>
<!-- node17&#45;&gt;node13 -->
<g id="edge27" class="edge">
<title>node17-&gt;node13</title>
<path fill="none" stroke="#000000" d="M423.189,-647.9555C432.2507,-610.3144 453.2259,-523.1867 464.0742,-478.1246"/>
<polygon fill="#000000" stroke="#000000" points="467.5388,-478.6865 466.4767,-468.1451 460.7333,-477.0481 467.5388,-478.6865"/>
</g>
<!-- node17&#45;&gt;node14 -->
<g id="edge28" class="edge">
<title>node17-&gt;node14</title>
<path fill="none" stroke="#000000" d="M391.3349,-657.9181C361.8645,-648.7384 314.1614,-632.3578 275.8449,-612 196.3822,-569.7808 112.3309,-504.114 71.7098,-470.8403"/>
<polygon fill="#000000" stroke="#000000" points="73.891,-468.1024 63.9483,-464.4427 69.4386,-473.504 73.891,-468.1024"/>
</g>
<!-- node18 -->
<g id="node19" class="node">
<title>node18</title>
<polygon fill="none" stroke="#000000" points="414.6185,-586.5442 414.6185,-601.4558 376.675,-612 323.0149,-612 285.0714,-601.4558 285.0714,-586.5442 323.0149,-576 376.675,-576 414.6185,-586.5442"/>
<text text-anchor="middle" x="349.8449" y="-591" font-family="Times,serif" font-size="10.00" fill="#000000">nimble-engine-client</text>
</g>
<!-- node17&#45;&gt;node18 -->
<g id="edge51" class="edge">
<title>node17-&gt;node18</title>
<path fill="none" stroke="#000000" d="M403.5316,-650.0209C394.9892,-641.1071 384.1458,-629.7922 374.4437,-619.6682"/>
<polygon fill="#000000" stroke="#000000" points="376.75,-617.0163 367.3039,-612.2181 371.696,-621.8597 376.75,-617.0163"/>
</g>
<!-- node25 -->
<g id="node26" class="node">
<title>node25</title>
<polygon fill="none" stroke="#000000" points="701.5381,-442.5442 701.5381,-457.4558 668.9138,-468 622.7761,-468 590.1518,-457.4558 590.1518,-442.5442 622.7761,-432 668.9138,-432 701.5381,-442.5442"/>
<text text-anchor="middle" x="645.8449" y="-447" font-family="Times,serif" font-size="10.00" fill="#000000">nimble-server-lib</text>
</g>
<!-- node17&#45;&gt;node25 -->
<g id="edge59" class="edge">
<title>node17-&gt;node25</title>
<path fill="none" stroke="#000000" d="M435.1702,-650.4658C473.9781,-613.5385 572.0342,-520.234 619.4132,-475.1509"/>
<polygon fill="#000000" stroke="#000000" points="622.0041,-477.5168 626.8359,-468.0879 617.1788,-472.4457 622.0041,-477.5168"/>
</g>
<!-- node19 -->
<g id="node20" class="node">
<title>node19</title>
<polygon fill="none" stroke="#000000" points="378.0837,-442.5442 378.0837,-457.4558 351.5834,-468 314.1064,-468 287.6061,-457.4558 287.6061,-442.5442 314.1064,-432 351.5834,-432 378.0837,-442.5442"/>
<text text-anchor="middle" x="332.8449" y="-447" font-family="Times,serif" font-size="10.00" fill="#000000">nimble-client</text>
</g>
<!-- node18&#45;&gt;node19 -->
<g id="edge39" class="edge">
<title>node18-&gt;node19</title>
<path fill="none" stroke="#000000" d="M347.6919,-575.7623C344.7923,-551.201 339.6033,-507.2474 336.1923,-478.3541"/>
<polygon fill="#000000" stroke="#000000" points="339.6289,-477.6103 334.9805,-468.0896 332.6771,-478.431 339.6289,-477.6103"/>
</g>
<!-- node22 -->
<g id="node23" class="node">
<title>node22</title>
<polygon fill="none" stroke="#000000" points="1030.1419,-514.5442 1030.1419,-529.4558 1014.1517,-540 991.5382,-540 975.548,-529.4558 975.548,-514.5442 991.5382,-504 1014.1517,-504 1030.1419,-514.5442"/>
<text text-anchor="middle" x="1002.8449" y="-519" font-family="Times,serif" font-size="10.00" fill="#000000">rectify</text>
</g>
<!-- node18&#45;&gt;node22 -->
<g id="edge47" class="edge">
<title>node18-&gt;node22</title>
<path fill="none" stroke="#000000" d="M414.544,-586.8663C549.7078,-571.9631 858.3559,-537.9314 965.4345,-526.1249"/>
<polygon fill="#000000" stroke="#000000" points="965.891,-529.5959 975.4471,-525.0209 965.1237,-522.638 965.891,-529.5959"/>
</g>
<!-- node24 -->
<g id="node25" class="node">
<title>node24</title>
<polygon fill="none" stroke="#000000" points="104.6698,-298.5442 104.6698,-313.4558 84.8557,-324 56.8342,-324 37.0201,-313.4558 37.0201,-298.5442 56.8342,-288 84.8557,-288 104.6698,-298.5442"/>
<text text-anchor="middle" x="70.8449" y="-303" font-family="Times,serif" font-size="10.00" fill="#000000">time-tick</text>
</g>
<!-- node18&#45;&gt;node24 -->
<g id="edge50" class="edge">
<title>node18-&gt;node24</title>
<path fill="none" stroke="#000000" d="M298.9562,-582.5559C212.9017,-562.0587 44.6678,-516.6549 10.8449,-468 -19.1404,-424.8655 19.9946,-364.9187 47.7022,-331.3584"/>
<polygon fill="#000000" stroke="#000000" points="50.64,-333.3066 54.4513,-323.421 45.3071,-328.7721 50.64,-333.3066"/>
</g>
<!-- node19&#45;&gt;node5 -->
<g id="edge31" class="edge">
<title>node19-&gt;node5</title>
<path fill="none" stroke="#000000" d="M319.2138,-431.8372C306.2274,-412.1458 290.9615,-380.7584 307.8449,-360 357.3996,-299.0719 404.6003,-342.8324 480.8449,-324 581.601,-299.1133 698.7732,-263.8131 757.397,-245.7071"/>
<polygon fill="#000000" stroke="#000000" points="758.7903,-248.9397 767.3071,-242.6377 756.7193,-242.253 758.7903,-248.9397"/>
</g>
<!-- node19&#45;&gt;node7 -->
<g id="edge35" class="edge">
<title>node19-&gt;node7</title>
<path fill="none" stroke="#000000" d="M365.9382,-437.6828C372.7744,-435.5037 379.9835,-433.4662 386.8449,-432 409.182,-427.2267 706.6146,-398.8917 851.1132,-385.2851"/>
<polygon fill="#000000" stroke="#000000" points="851.6189,-388.753 861.2469,-384.3314 850.9629,-381.7838 851.6189,-388.753"/>
</g>
<!-- node19&#45;&gt;node10 -->
<g id="edge29" class="edge">
<title>node19-&gt;node10</title>
<path fill="none" stroke="#000000" d="M307.9168,-434.2112C295.4745,-424.8006 281.6538,-411.6423 274.8449,-396 266.3269,-376.4311 269.1226,-352.2417 273.6122,-333.8704"/>
<polygon fill="#000000" stroke="#000000" points="277.0312,-334.6369 276.2988,-324.0674 270.2801,-332.7866 277.0312,-334.6369"/>
</g>
<!-- node19&#45;&gt;node12 -->
<g id="edge30" class="edge">
<title>node19-&gt;node12</title>
<path fill="none" stroke="#000000" d="M343.948,-431.8314C348.9124,-423.7079 354.8671,-413.9637 360.3377,-405.0118"/>
<polygon fill="#000000" stroke="#000000" points="363.3643,-406.7712 365.5924,-396.4133 357.3913,-403.121 363.3643,-406.7712"/>
</g>
<!-- node19&#45;&gt;node15 -->
<g id="edge32" class="edge">
<title>node19-&gt;node15</title>
<path fill="none" stroke="#000000" d="M296.1301,-438.9542C261.2089,-428.3346 207.2643,-411.6348 160.8449,-396 157.3148,-394.811 153.6545,-393.5493 149.9929,-392.2674"/>
<polygon fill="#000000" stroke="#000000" points="150.9806,-388.9042 140.3858,-388.8632 148.6425,-395.5023 150.9806,-388.9042"/>
</g>
<!-- node19&#45;&gt;node16 -->
<g id="edge38" class="edge">
<title>node19-&gt;node16</title>
<path fill="none" stroke="#000000" d="M310.2871,-433.4334C296.8802,-423.2001 279.8211,-409.4856 265.8449,-396 244.5548,-375.4571 222.6967,-349.7621 207.5566,-331.0919"/>
<polygon fill="#000000" stroke="#000000" points="210.09,-328.6569 201.0992,-323.0518 204.6323,-333.0402 210.09,-328.6569"/>
</g>
<!-- node20 -->
<g id="node21" class="node">
<title>node20</title>
<polygon fill="none" stroke="#000000" points="597.0283,-370.5442 597.0283,-385.4558 566.46,-396 523.2299,-396 492.6616,-385.4558 492.6616,-370.5442 523.2299,-360 566.46,-360 597.0283,-370.5442"/>
<text text-anchor="middle" x="544.8449" y="-375" font-family="Times,serif" font-size="10.00" fill="#000000">nimble-serialize</text>
</g>
<!-- node19&#45;&gt;node20 -->
<g id="edge34" class="edge">
<title>node19-&gt;node20</title>
<path fill="none" stroke="#000000" d="M367.3782,-438.2717C402.8557,-426.2227 458.3258,-407.3839 497.8003,-393.9774"/>
<polygon fill="#000000" stroke="#000000" points="499.1264,-397.2235 507.4696,-390.6935 496.8752,-390.5953 499.1264,-397.2235"/>
</g>
<!-- node21 -->
<g id="node22" class="node">
<title>node21</title>
<polygon fill="none" stroke="#000000" points="728.689,-370.5442 728.689,-385.4558 695.3905,-396 648.2994,-396 615.0009,-385.4558 615.0009,-370.5442 648.2994,-360 695.3905,-360 728.689,-370.5442"/>
<text text-anchor="middle" x="671.8449" y="-375" font-family="Times,serif" font-size="10.00" fill="#000000">ordered-datagram</text>
</g>
<!-- node19&#45;&gt;node21 -->
<g id="edge37" class="edge">
<title>node19-&gt;node21</title>
<path fill="none" stroke="#000000" d="M366.5948,-437.8373C373.2514,-435.6982 380.2255,-433.6363 386.8449,-432 482.6023,-408.3291 509.4677,-417.0049 605.8449,-396 610.4613,-394.9939 615.2367,-393.8658 620.0102,-392.6779"/>
<polygon fill="#000000" stroke="#000000" points="620.9392,-396.053 629.7544,-390.1757 619.1981,-389.273 620.9392,-396.053"/>
</g>
<!-- node20&#45;&gt;node6 -->
<g id="edge33" class="edge">
<title>node20-&gt;node6</title>
<path fill="none" stroke="#000000" d="M504.6211,-366.2838C456.2492,-352.0167 380.9809,-329.1755 376.8449,-324 363.1285,-306.8364 362.0264,-281.5134 363.8414,-262.097"/>
<polygon fill="#000000" stroke="#000000" points="367.3354,-262.3609 365.0883,-252.0071 360.3882,-261.5023 367.3354,-262.3609"/>
</g>
<!-- node21&#45;&gt;node6 -->
<g id="edge36" class="edge">
<title>node21-&gt;node6</title>
<path fill="none" stroke="#000000" d="M639.4186,-362.5895C580.8489,-334.7544 458.1375,-276.4361 400.2915,-248.9449"/>
<polygon fill="#000000" stroke="#000000" points="401.7903,-245.7821 391.256,-244.6508 398.7856,-252.1044 401.7903,-245.7821"/>
</g>
<!-- node22&#45;&gt;node0 -->
<g id="edge40" class="edge">
<title>node22-&gt;node0</title>
<path fill="none" stroke="#000000" d="M1018.4679,-506.3771C1028.2803,-496.5647 1041.1042,-483.7407 1052.0419,-472.8031"/>
<polygon fill="#000000" stroke="#000000" points="1054.6563,-475.1384 1059.2525,-465.5924 1049.7065,-470.1887 1054.6563,-475.1384"/>
</g>
<!-- node22&#45;&gt;node7 -->
<g id="edge41" class="edge">
<title>node22-&gt;node7</title>
<path fill="none" stroke="#000000" d="M989.9714,-504.5247C982.6802,-494.1996 973.6802,-480.6996 966.8449,-468 955.9254,-447.712 945.8945,-423.6131 938.8839,-405.4605"/>
<polygon fill="#000000" stroke="#000000" points="942.1331,-404.1576 935.3134,-396.0494 935.5883,-406.6407 942.1331,-404.1576"/>
</g>
<!-- node22&#45;&gt;node8 -->
<g id="edge46" class="edge">
<title>node22-&gt;node8</title>
<path fill="none" stroke="#000000" d="M1029.337,-513.56C1052.8866,-505.0207 1087.158,-489.9348 1110.8449,-468 1129.7166,-450.5243 1144.1943,-424.9585 1153.3863,-405.537"/>
<polygon fill="#000000" stroke="#000000" points="1156.6384,-406.8401 1157.5883,-396.2879 1150.2653,-403.9446 1156.6384,-406.8401"/>
</g>
<!-- node23 -->
<g id="node24" class="node">
<title>node23</title>
<polygon fill="none" stroke="#000000" points="1029.8449,-442.5442 1029.8449,-457.4558 1014.0287,-468 991.6612,-468 975.8449,-457.4558 975.8449,-442.5442 991.6612,-432 1014.0287,-432 1029.8449,-442.5442"/>
<text text-anchor="middle" x="1002.8449" y="-447" font-family="Times,serif" font-size="10.00" fill="#000000">seer</text>
</g>
<!-- node22&#45;&gt;node23 -->
<g id="edge45" class="edge">
<title>node22-&gt;node23</title>
<path fill="none" stroke="#000000" d="M1002.8449,-503.8314C1002.8449,-496.131 1002.8449,-486.9743 1002.8449,-478.4166"/>
<polygon fill="#000000" stroke="#000000" points="1006.345,-478.4132 1002.8449,-468.4133 999.345,-478.4133 1006.345,-478.4132"/>
</g>
<!-- node23&#45;&gt;node7 -->
<g id="edge43" class="edge">
<title>node23-&gt;node7</title>
<path fill="none" stroke="#000000" d="M987.1514,-434.7307C977.7064,-425.5409 965.4514,-413.6171 954.6158,-403.0743"/>
<polygon fill="#000000" stroke="#000000" points="957.001,-400.5117 947.3929,-396.0467 952.1195,-405.5288 957.001,-400.5117"/>
</g>
<!-- node23&#45;&gt;node8 -->
<g id="edge44" class="edge">
<title>node23-&gt;node8</title>
<path fill="none" stroke="#000000" d="M1024.447,-438.9415C1029.167,-436.5975 1034.154,-434.1756 1038.8449,-432 1068.1975,-418.3863 1101.9097,-404.0025 1127.0727,-393.506"/>
<polygon fill="#000000" stroke="#000000" points="1128.7199,-396.6117 1136.6113,-389.5423 1126.0337,-390.1476 1128.7199,-396.6117"/>
</g>
<!-- node23&#45;&gt;node11 -->
<g id="edge42" class="edge">
<title>node23-&gt;node11</title>
<path fill="none" stroke="#000000" d="M1010.002,-431.7193C1016.5405,-411.6264 1022.8505,-379.6039 1005.8449,-360 978.0081,-327.9098 290.3544,-261.0353 248.8449,-252 244.7181,-251.1017 240.4627,-250.07 236.2092,-248.9648"/>
<polygon fill="#000000" stroke="#000000" points="236.9178,-245.5304 226.3495,-246.2809 235.0791,-252.2847 236.9178,-245.5304"/>
</g>
<!-- node24&#45;&gt;node2 -->
<g id="edge48" class="edge">
<title>node24-&gt;node2</title>
<path fill="none" stroke="#000000" d="M79.1884,-287.8639C88.7334,-268.4816 105.7958,-237.6287 126.8449,-216 176.0527,-165.4374 249.1881,-125.2857 290.806,-104.8288"/>
<polygon fill="#000000" stroke="#000000" points="292.4557,-107.9188 299.9315,-100.4113 289.4056,-101.6182 292.4557,-107.9188"/>
</g>
<!-- node24&#45;&gt;node11 -->
<g id="edge49" class="edge">
<title>node24-&gt;node11</title>
<path fill="none" stroke="#000000" d="M93.1271,-292.2879C109.916,-281.9563 133.2661,-267.587 152.581,-255.7009"/>
<polygon fill="#000000" stroke="#000000" points="154.4512,-258.6597 161.1334,-250.4379 150.7824,-252.6981 154.4512,-258.6597"/>
</g>
<!-- node25&#45;&gt;node5 -->
<g id="edge54" class="edge">
<title>node25-&gt;node5</title>
<path fill="none" stroke="#000000" d="M694.7976,-440.3474C737.6814,-430.7796 795.2315,-414.851 808.8449,-396 837.4256,-356.4233 821.0051,-296.3931 807.339,-261.6017"/>
<polygon fill="#000000" stroke="#000000" points="810.4623,-259.9944 803.4184,-252.0803 803.9896,-262.6598 810.4623,-259.9944"/>
</g>
<!-- node25&#45;&gt;node7 -->
<g id="edge56" class="edge">
<title>node25-&gt;node7</title>
<path fill="none" stroke="#000000" d="M690.0637,-438.75C738.5048,-426.4258 816.4274,-406.6009 870.0038,-392.9702"/>
<polygon fill="#000000" stroke="#000000" points="870.8835,-396.358 879.7117,-390.5003 869.1575,-389.5741 870.8835,-396.358"/>
</g>
<!-- node25&#45;&gt;node10 -->
<g id="edge52" class="edge">
<title>node25-&gt;node10</title>
<path fill="none" stroke="#000000" d="M685.8487,-437.22C705.1972,-428.7912 726.6178,-415.6081 737.8449,-396 745.7952,-382.115 748.5136,-371.9239 737.8449,-360 689.6875,-306.177 486.5192,-332.8798 414.8449,-324 388.3339,-320.7155 358.8755,-316.7308 334.5258,-313.3462"/>
<polygon fill="#000000" stroke="#000000" points="334.8144,-309.8526 324.4265,-311.9362 333.8465,-316.7854 334.8144,-309.8526"/>
</g>
<!-- node25&#45;&gt;node12 -->
<g id="edge53" class="edge">
<title>node25-&gt;node12</title>
<path fill="none" stroke="#000000" d="M602.6254,-438.432C556.1214,-425.9848 482.052,-406.1595 431.5271,-392.6361"/>
<polygon fill="#000000" stroke="#000000" points="432.3161,-389.2242 421.7511,-390.0195 430.5061,-395.9861 432.3161,-389.2242"/>
</g>
<!-- node25&#45;&gt;node16 -->
<g id="edge58" class="edge">
<title>node25-&gt;node16</title>
<path fill="none" stroke="#000000" d="M598.1292,-439.9314C564.5551,-431.4906 519.4427,-417.3414 483.8449,-396 463.8916,-384.0376 466.665,-370.3807 445.8449,-360 359.5311,-316.9646 324.6029,-350.4212 231.8449,-324 228.0249,-322.9119 224.0862,-321.5968 220.2084,-320.1785"/>
<polygon fill="#000000" stroke="#000000" points="221.3854,-316.8808 210.797,-316.5108 218.8436,-323.4031 221.3854,-316.8808"/>
</g>
<!-- node25&#45;&gt;node20 -->
<g id="edge55" class="edge">
<title>node25-&gt;node20</title>
<path fill="none" stroke="#000000" d="M621.1376,-432.3868C607.9829,-423.0092 591.6365,-411.3564 577.4527,-401.2452"/>
<polygon fill="#000000" stroke="#000000" points="579.1232,-398.1377 568.9487,-395.1829 575.0598,-403.8377 579.1232,-398.1377"/>
</g>
<!-- node25&#45;&gt;node21 -->
<g id="edge57" class="edge">
<title>node25-&gt;node21</title>
<path fill="none" stroke="#000000" d="M652.4058,-431.8314C655.2476,-423.9617 658.6387,-414.5712 661.7868,-405.8533"/>
<polygon fill="#000000" stroke="#000000" points="665.0911,-407.0076 665.1957,-396.4133 658.5072,-404.63 665.0911,-407.0076"/>
</g>
</g>
</svg>